<svg xmlns="http://www.w3.org/2000/svg" width="430" height="430" style="width:100%;height:100%;transform:translate3d(0,0,0);content-visibility:visible" viewBox="0 0 430 430"><defs><clipPath id="a"><path d="M0 0h430v430H0z"/></clipPath><clipPath id="b"><path d="M0 0h430v430H0z"/></clipPath></defs><g clip-path="url(#a)"><g fill="none" stroke-linecap="round" stroke-linejoin="round" stroke-width="6.02" clip-path="url(#b)" style="display:block"><path stroke="#882FE8" d="m106.06 316.76 42.76-.02s24.76 11.23 61.93 11.21c20.35-.01 39.33-.01 52.33-.01h.02m4.59-146.76-4.8.03-24.61.12s17.41-41.17 30.99-50.02c13.98-9.11 15.92-27.77 11.77-35.57-2.44-5.62-13.11-14.24-20.03-14.24-.64 0-1.24.08-1.8.23l-47.02 44.19c-27.55 11.67-48.52 37.7-63.46 60.57l-42.77.02m174.42 31.31v-.02m-17.502-36.673 35.351-.046c9.555-.003 17.303 7.739 17.306 17.294q0 0 0 0c.004 10.715-8.68 19.404-19.395 19.408l-29.034.045m19.373-.045-19.545.045c-9.555.003-17.304-7.738-17.307-17.293q0 0 0 0c-.004-10.715 8.68-19.405 19.395-19.409l17.444-.045m-19.532 73.472c-9.555.003-17.304-7.738-17.307-17.293v-.001c-.004-10.715 8.68-19.404 19.395-19.408m17.457 73.361-19.545.045c-9.555.003-17.304-7.738-17.307-17.293q0 0 0 0c-.004-10.715 8.68-19.405 19.395-19.409m-1.902-.025 20.708-.02c9.555-.003 17.303 7.738 17.306 17.293q0 0 0 0c.004 10.715-8.68 19.405-19.395 19.409l-22.821.02m0 0 83.734 7.168c8.877 1.325 15.451 8.941 15.467 17.916v.001c.019 11.101-9.844 19.616-20.824 17.978l-78.364-6.361m4.175-110.106 26.71-.022c10.135-.004 18.354 8.209 18.358 18.344q0 0 0 0c.004 10.135-8.21 18.354-18.345 18.358l-26.709.022m-28.838-73.195s-16.841 47.65-60.042 47.333m49.287-50.13" class="primary"/><path stroke="#C59CF4" d="M55.504 185.986v142.885h50.458V163.917z" class="secondary"/></g></g></svg>